<svg xmlns="http://www.w3.org/2000/svg" xmlns:xlink="http://www.w3.org/1999/xlink" width="2500" zoomAndPan="magnify" viewBox="0 0 1874.88 374.999991" height="500" preserveAspectRatio="xMidYMid meet" version="1.0"><defs><clipPath id="e300ad5324"><path d="M 59.160156 75 L 1815.546875 75 L 1815.546875 300.824219 L 59.160156 300.824219 Z M 59.160156 75 " clip-rule="nonzero"/></clipPath></defs><g clip-path="url(#e300ad5324)"><path fill="#36a852" d="M 658.804688 143.3125 C 654.074219 134.527344 646.648438 128.445312 637.53125 124.726562 C 630.777344 122.023438 623.6875 120.671875 616.597656 119.996094 C 605.117188 118.308594 593.640625 118.644531 582.160156 120.335938 C 575.746094 121.347656 569.667969 124.050781 563.25 126.078125 C 562.914062 126.078125 562.914062 126.417969 562.578125 126.417969 C 562.238281 126.417969 562.238281 126.417969 561.902344 126.753906 C 561.5625 126.753906 561.5625 127.09375 561.226562 127.09375 C 557.851562 129.457031 554.8125 131.824219 551.433594 134.1875 C 551.433594 134.1875 551.097656 134.527344 551.097656 134.527344 C 547.046875 138.921875 544.007812 143.652344 541.980469 149.058594 C 541.980469 149.394531 541.644531 149.394531 541.304688 149.734375 C 540.628906 151.085938 540.292969 152.4375 539.953125 153.789062 C 537.589844 162.574219 535.902344 171.699219 535.902344 180.820312 C 535.902344 190.28125 536.578125 200.082031 536.578125 209.882812 C 537.929688 210.21875 538.265625 210.894531 537.253906 211.910156 C 537.929688 215.289062 538.605469 218.667969 539.617188 222.046875 C 542.992188 234.550781 549.746094 244.6875 561.226562 250.769531 C 561.5625 250.769531 561.5625 251.105469 561.902344 251.105469 C 562.238281 251.105469 562.238281 251.105469 562.578125 251.445312 C 562.914062 251.445312 562.914062 251.785156 563.25 251.785156 C 563.589844 251.785156 563.589844 251.785156 563.925781 252.121094 C 564.265625 252.121094 564.265625 252.460938 564.601562 252.460938 C 564.941406 252.460938 565.277344 252.460938 565.277344 252.796875 L 565.953125 253.472656 C 567.640625 253.8125 569.328125 254.148438 571.015625 254.824219 C 576.082031 256.851562 581.148438 257.527344 586.546875 258.203125 C 590.601562 258.878906 594.652344 258.878906 599.042969 258.542969 C 606.46875 258.203125 613.558594 257.867188 620.988281 257.191406 C 627.066406 256.515625 633.144531 254.488281 638.882812 252.121094 C 647.324219 248.742188 653.738281 243.335938 658.128906 235.5625 C 660.828125 231.171875 662.855469 226.101562 664.207031 221.371094 C 665.554688 214.949219 666.570312 208.191406 667.582031 201.773438 C 667.582031 201.433594 667.582031 200.757812 667.582031 200.421875 C 668.257812 188.929688 667.917969 177.441406 666.230469 165.953125 C 664.878906 157.84375 662.515625 150.070312 658.804688 143.3125 Z M 627.402344 189.605469 C 627.066406 192.648438 626.726562 197.042969 626.050781 201.773438 C 625.714844 204.476562 625.714844 207.179688 625.039062 209.542969 C 623.6875 215.289062 619.976562 218.328125 614.574219 219.679688 C 606.46875 221.371094 598.367188 221.371094 590.261719 220.019531 C 588.238281 219.679688 586.210938 219.34375 584.523438 218.328125 C 581.148438 216.640625 579.121094 213.597656 578.109375 209.882812 C 575.070312 196.367188 575.40625 182.847656 577.769531 168.996094 C 578.445312 163.925781 580.808594 159.871094 585.535156 158.179688 C 588.238281 157.167969 590.9375 156.492188 593.976562 156.152344 C 600.390625 155.476562 606.808594 155.476562 612.882812 156.828125 C 614.234375 157.167969 615.921875 157.503906 617.273438 158.179688 C 620.988281 159.53125 623.6875 161.898438 624.703125 165.617188 C 625.714844 169.332031 626.390625 173.050781 626.726562 177.105469 C 627.066406 180.484375 627.066406 184.199219 627.402344 189.605469 Z M 293.480469 124.050781 C 288.078125 122.023438 282.675781 120.671875 276.9375 119.996094 C 262.753906 118.308594 248.910156 118.308594 235.070312 122.023438 C 226.628906 124.390625 219.199219 128.105469 213.121094 134.1875 C 207.382812 139.597656 203.667969 147.03125 200.96875 154.464844 C 199.277344 159.195312 198.605469 163.925781 197.929688 168.65625 C 195.902344 182.847656 195.902344 197.042969 198.265625 210.894531 C 199.617188 219.003906 201.644531 227.117188 205.695312 234.550781 C 210.421875 242.996094 216.835938 249.078125 225.613281 252.796875 C 236.417969 257.527344 247.5625 258.878906 259.039062 258.542969 C 267.480469 258.203125 275.585938 257.527344 283.6875 256.851562 C 285.714844 256.515625 287.738281 255.839844 289.765625 255.5 C 296.519531 255.164062 302.257812 252.796875 308.671875 250.429688 C 310.023438 249.753906 311.375 249.078125 312.726562 248.402344 L 312.726562 216.300781 C 311.710938 216.300781 311.375 216.640625 310.699219 216.640625 C 303.945312 217.652344 297.195312 219.34375 290.101562 220.019531 C 281.664062 221.03125 273.222656 221.371094 264.78125 221.707031 C 258.703125 222.046875 252.964844 221.707031 247.222656 219.34375 C 244.183594 218.328125 241.820312 216.300781 240.132812 213.597656 C 238.109375 210.21875 237.769531 206.164062 237.433594 202.109375 L 316.4375 202.109375 C 316.777344 199.40625 317.453125 196.703125 317.453125 194.339844 C 317.789062 186.902344 318.128906 179.132812 318.128906 171.359375 C 318.128906 164.601562 317.113281 157.503906 315.425781 150.746094 C 312.386719 138.582031 305.636719 129.121094 293.480469 124.050781 Z M 281.324219 175.753906 L 238.105469 175.753906 C 236.082031 168.996094 239.457031 159.195312 244.859375 156.492188 C 247.5625 155.140625 250.601562 154.464844 253.640625 154.125 C 259.039062 153.789062 264.105469 154.125 269.507812 154.464844 C 271.535156 154.464844 273.558594 155.476562 275.585938 156.492188 C 277.949219 157.503906 279.300781 159.871094 279.972656 162.574219 C 281.664062 166.628906 281.324219 171.023438 281.324219 175.753906 Z M 810.0625 141.960938 C 806.011719 132.160156 798.921875 125.742188 789.132812 122.363281 C 782.378906 119.660156 775.289062 119.320312 767.859375 118.984375 C 761.445312 118.984375 755.03125 119.320312 748.953125 121.011719 C 740.171875 123.375 732.746094 127.769531 725.992188 133.851562 C 724.980469 134.527344 724.304688 135.878906 722.953125 135.542969 C 722.617188 130.808594 722.277344 126.417969 721.605469 122.023438 C 717.214844 121.347656 688.515625 121.347656 686.152344 122.023438 C 686.152344 166.628906 686.152344 211.234375 686.152344 255.839844 L 726.667969 255.839844 L 726.667969 251.785156 C 726.667969 223.0625 726.667969 194.339844 726.667969 165.617188 C 726.667969 162.234375 727.679688 160.882812 730.71875 159.871094 C 739.160156 156.492188 747.601562 155.476562 756.378906 155.816406 C 760.09375 155.816406 763.46875 156.828125 766.847656 158.519531 C 769.546875 159.871094 771.574219 161.898438 772.25 165.277344 C 772.585938 166.96875 772.585938 168.996094 772.585938 170.683594 C 772.585938 197.71875 772.585938 224.75 772.585938 252.121094 L 772.585938 256.175781 L 813.101562 256.175781 C 813.101562 255.164062 813.101562 254.488281 813.101562 253.8125 C 813.101562 223.738281 813.101562 193.664062 813.101562 163.585938 C 813.777344 155.816406 812.765625 148.71875 810.0625 141.960938 Z M 419.757812 124.050781 C 413.679688 146.355469 407.9375 168.65625 401.863281 190.957031 C 400.171875 197.71875 398.148438 204.136719 396.460938 210.894531 C 396.460938 211.234375 396.121094 211.570312 396.121094 211.910156 C 395.785156 211.570312 395.445312 211.570312 395.445312 211.234375 C 395.445312 210.558594 395.445312 209.882812 395.445312 209.207031 C 395.109375 208.53125 394.769531 207.855469 394.769531 207.179688 C 387.003906 180.144531 379.578125 152.773438 371.8125 125.742188 C 371.472656 124.050781 370.796875 122.699219 370.125 121.011719 L 325.21875 121.011719 C 325.554688 122.699219 325.554688 124.050781 326.230469 125.066406 C 328.933594 132.5 331.96875 139.597656 335.007812 147.03125 C 336.699219 151.421875 338.386719 156.152344 340.074219 160.882812 C 342.773438 167.644531 345.476562 174.402344 348.175781 181.496094 C 350.203125 186.566406 351.890625 191.632812 353.917969 197.042969 C 356.957031 204.8125 359.996094 212.585938 363.03125 220.355469 C 364.722656 224.75 366.410156 229.144531 368.097656 233.875 C 370.125 239.28125 372.148438 244.347656 374.511719 249.753906 C 374.851562 250.769531 375.527344 252.121094 375.527344 253.136719 C 374.851562 257.191406 373.164062 260.570312 369.109375 262.257812 C 366.070312 263.609375 362.359375 264.625 358.980469 264.625 C 353.242188 264.625 347.5 264.625 341.425781 264.625 L 341.425781 298.078125 C 351.554688 300.105469 361.683594 300.441406 371.8125 299.765625 C 378.5625 299.089844 384.980469 297.402344 390.71875 294.359375 C 401.523438 288.617188 407.9375 279.152344 412.664062 268.339844 C 412.664062 268.003906 413.003906 268.003906 413.339844 267.664062 C 415.703125 261.582031 418.066406 255.5 420.09375 249.078125 C 422.792969 241.644531 425.160156 234.550781 427.523438 227.117188 C 429.886719 220.355469 432.25 213.597656 434.613281 206.503906 C 437.3125 198.730469 439.675781 191.296875 442.378906 183.523438 C 444.742188 176.765625 447.105469 170.347656 449.46875 163.589844 C 452.167969 155.476562 455.207031 147.367188 457.910156 139.257812 C 459.933594 133.511719 461.960938 127.769531 463.988281 121.6875 L 420.429688 121.6875 C 420.429688 122.363281 420.09375 123.375 419.757812 124.050781 Z M 172.269531 214.613281 C 165.515625 216.300781 158.761719 217.316406 151.671875 218.328125 C 142.21875 219.34375 132.765625 219.679688 123.648438 217.992188 C 116.21875 216.640625 111.15625 212.585938 107.78125 205.828125 C 107.441406 205.488281 107.441406 205.488281 107.105469 205.152344 C 106.765625 203.460938 106.089844 201.773438 105.417969 200.421875 C 103.726562 194.339844 102.714844 187.917969 102.714844 181.496094 C 102.714844 172.035156 103.050781 162.574219 103.390625 153.113281 C 103.390625 147.707031 104.742188 142.300781 106.765625 137.570312 C 109.46875 130.808594 113.855469 125.402344 121.285156 123.375 C 124.324219 122.699219 127.699219 122.023438 130.738281 121.6875 C 139.855469 121.347656 148.632812 121.347656 157.75 121.347656 C 164.839844 121.347656 171.929688 122.023438 179.019531 122.023438 C 180.035156 122.023438 181.382812 122.699219 181.722656 120.671875 C 181.722656 109.183594 181.722656 98.03125 181.722656 86.882812 C 181.722656 85.191406 180.371094 85.191406 179.019531 84.855469 C 176.320312 84.515625 173.28125 84.179688 170.578125 83.839844 C 161.464844 83.503906 152.683594 82.828125 143.570312 82.828125 C 133.441406 82.488281 123.648438 83.164062 113.855469 85.53125 C 102.714844 87.894531 92.585938 91.949219 83.808594 99.046875 C 73.679688 107.496094 67.601562 118.644531 63.886719 131.148438 C 62.535156 135.542969 61.1875 140.273438 60.511719 144.664062 C 59.835938 150.746094 59.160156 157.167969 59.160156 163.585938 C 58.820312 179.132812 59.160156 194.675781 62.535156 209.882812 C 63.886719 216.300781 65.914062 222.722656 68.613281 228.804688 C 70.300781 232.523438 72.664062 235.5625 75.367188 238.605469 C 82.457031 247.390625 92.921875 253.472656 106.429688 255.839844 C 121.285156 258.878906 136.480469 258.878906 151.335938 257.191406 C 159.101562 256.175781 167.203125 254.488281 174.632812 251.445312 C 178.007812 250.09375 181.722656 248.742188 185.097656 247.726562 L 185.097656 210.558594 C 184.085938 210.894531 183.074219 210.894531 182.398438 211.234375 C 178.683594 212.585938 175.644531 213.597656 172.269531 214.613281 Z M 476.480469 255.839844 L 516.65625 255.839844 L 516.65625 75.054688 L 476.480469 75.054688 C 475.464844 80.125 475.804688 253.472656 476.480469 255.839844 Z M 1473.183594 109.183594 L 1515.726562 109.183594 L 1515.726562 77.757812 L 1473.183594 77.757812 Z M 994.414062 152.773438 L 934.652344 152.773438 C 934.652344 148.382812 934.652344 143.988281 934.652344 139.933594 L 934.652344 113.914062 C 934.652344 109.523438 934.652344 105.128906 934.652344 100.734375 C 934.652344 96.679688 934.652344 92.289062 934.652344 88.234375 L 892.785156 88.234375 L 892.785156 258.542969 L 934.988281 258.542969 L 934.988281 191.296875 C 944.105469 190.621094 992.050781 190.957031 994.75 191.632812 L 994.75 258.542969 L 1036.28125 258.542969 L 1036.28125 88.234375 L 994.414062 88.234375 Z M 1449.886719 148.71875 C 1444.820312 133.511719 1434.355469 125.066406 1418.484375 122.363281 C 1412.070312 121.347656 1405.320312 121.011719 1398.902344 121.6875 C 1397.214844 122.023438 1395.1875 122.023438 1393.5 122.363281 C 1388.4375 123.714844 1383.710938 125.066406 1378.644531 126.753906 C 1378.308594 127.09375 1378.308594 127.09375 1377.96875 127.429688 C 1373.582031 130.472656 1369.191406 133.175781 1364.800781 136.21875 C 1364.125 132.160156 1363.453125 128.105469 1362.777344 124.390625 C 1362.101562 124.390625 1361.761719 124.050781 1361.425781 124.050781 C 1350.621094 124.050781 1339.816406 124.050781 1328.675781 124.050781 C 1328.335938 124.050781 1327.660156 124.390625 1327.324219 124.390625 C 1327.324219 124.390625 1327.324219 124.726562 1327.324219 125.066406 C 1327.324219 125.066406 1327.324219 125.066406 1326.988281 125.066406 C 1326.988281 126.078125 1326.988281 127.429688 1326.988281 128.445312 C 1326.988281 184.199219 1326.988281 239.617188 1326.988281 295.375 C 1326.988281 296.386719 1326.988281 297.738281 1326.988281 298.753906 C 1327.324219 299.089844 1327.324219 299.089844 1327.660156 299.429688 C 1328 299.429688 1328.675781 299.765625 1329.011719 299.765625 C 1341.167969 299.765625 1353.660156 299.765625 1365.816406 299.765625 C 1366.488281 299.765625 1366.828125 299.765625 1367.503906 299.429688 C 1367.503906 296.050781 1367.503906 292.671875 1367.503906 289.292969 C 1367.503906 279.152344 1367.503906 268.679688 1367.503906 258.542969 C 1367.839844 258.203125 1367.839844 258.203125 1368.179688 257.867188 C 1371.21875 258.542969 1374.59375 259.21875 1377.632812 259.554688 C 1388.773438 261.246094 1399.578125 261.246094 1410.71875 259.554688 C 1415.449219 258.878906 1420.175781 257.191406 1424.5625 255.5 C 1424.902344 255.164062 1425.238281 255.164062 1425.238281 254.824219 C 1431.652344 252.460938 1436.71875 248.402344 1441.109375 242.996094 C 1445.835938 237.253906 1448.535156 230.832031 1450.898438 223.738281 C 1452.925781 216.976562 1453.601562 209.882812 1454.277344 202.785156 C 1455.289062 191.972656 1454.949219 180.820312 1453.601562 170.007812 C 1453.601562 163.25 1452.25 156.152344 1449.886719 148.71875 Z M 1414.773438 195.015625 C 1414.773438 199.40625 1414.773438 203.800781 1413.085938 208.191406 C 1412.410156 209.542969 1412.410156 211.234375 1412.410156 212.585938 C 1411.734375 216.640625 1409.707031 219.003906 1405.992188 220.695312 C 1400.929688 222.722656 1395.863281 223.398438 1390.800781 223.398438 C 1386.410156 223.398438 1381.683594 223.738281 1377.292969 222.722656 C 1374.253906 222.046875 1371.21875 221.707031 1368.515625 219.679688 L 1368.515625 162.574219 C 1371.554688 160.882812 1375.269531 159.871094 1378.644531 159.195312 C 1382.695312 158.519531 1386.75 158.519531 1391.136719 158.179688 C 1395.863281 157.84375 1400.589844 158.855469 1405.320312 160.207031 C 1408.695312 160.882812 1411.058594 163.25 1412.410156 166.628906 C 1413.757812 169.671875 1414.097656 173.050781 1414.773438 176.429688 C 1414.773438 182.171875 1415.109375 188.59375 1414.773438 195.015625 Z M 1150.066406 124.390625 C 1141.625 122.363281 1132.84375 121.347656 1124.066406 121.347656 C 1113.261719 121.347656 1102.796875 122.023438 1092.328125 125.402344 C 1080.847656 128.78125 1071.734375 135.203125 1065.65625 145.679688 C 1062.617188 151.085938 1060.589844 156.828125 1059.242188 162.910156 C 1058.566406 165.953125 1057.550781 169.332031 1057.214844 172.375 C 1056.878906 175.078125 1056.878906 178.117188 1056.878906 180.820312 C 1056.203125 193.664062 1056.203125 206.503906 1059.242188 219.003906 C 1059.914062 222.046875 1060.253906 225.089844 1061.605469 227.792969 C 1065.992188 239.28125 1073.082031 249.078125 1084.902344 254.148438 C 1085.914062 254.488281 1087.265625 255.164062 1088.277344 255.5 C 1093.003906 257.867188 1098.070312 258.542969 1103.132812 259.554688 C 1109.546875 260.570312 1116.300781 260.570312 1124.742188 261.246094 C 1129.46875 260.570312 1135.882812 259.894531 1142.300781 259.21875 C 1148.375 258.878906 1153.777344 256.851562 1159.179688 254.824219 C 1171.335938 249.753906 1179.4375 240.632812 1183.828125 228.46875 C 1186.53125 221.03125 1187.878906 213.597656 1188.554688 205.828125 C 1190.242188 190.28125 1189.566406 174.738281 1185.855469 159.53125 C 1180.789062 140.949219 1168.972656 129.121094 1150.066406 124.390625 Z M 1146.6875 209.207031 C 1146.351562 210.21875 1146.351562 211.234375 1146.011719 212.246094 C 1144.664062 217.992188 1140.949219 221.03125 1135.546875 222.386719 C 1129.46875 223.738281 1123.054688 224.074219 1116.640625 223.398438 C 1113.9375 223.0625 1110.898438 222.386719 1108.199219 221.707031 C 1104.484375 220.695312 1101.78125 218.667969 1100.09375 214.949219 C 1098.742188 211.570312 1097.730469 208.191406 1097.730469 204.476562 C 1097.730469 201.097656 1097.394531 197.71875 1097.054688 193.664062 C 1097.394531 188.253906 1097.054688 181.496094 1098.070312 175.414062 C 1098.40625 172.035156 1099.082031 168.320312 1101.445312 165.277344 C 1103.472656 162.574219 1106.171875 161.222656 1109.210938 160.207031 C 1115.964844 158.179688 1123.054688 158.519531 1129.804688 158.855469 C 1132.84375 159.195312 1135.882812 159.871094 1138.921875 160.882812 C 1142.300781 161.898438 1144.664062 164.601562 1145.675781 167.980469 C 1146.351562 170.347656 1147.027344 172.710938 1147.363281 175.078125 C 1148.375 186.226562 1148.714844 197.71875 1146.6875 209.207031 Z M 1751.394531 156.828125 C 1750.046875 147.707031 1746.667969 139.597656 1739.917969 133.511719 C 1736.203125 130.132812 1731.476562 127.429688 1726.75 125.742188 C 1720.671875 123.375 1714.59375 122.363281 1708.515625 122.023438 C 1695.347656 121.347656 1682.179688 122.023438 1669.351562 123.039062 C 1661.921875 123.714844 1654.496094 124.390625 1647.402344 126.753906 L 1647.402344 159.53125 C 1649.09375 159.195312 1650.441406 159.195312 1652.132812 158.855469 C 1666.648438 156.828125 1681.167969 156.492188 1696.023438 156.828125 C 1699.738281 156.828125 1703.113281 157.84375 1706.152344 159.53125 C 1709.191406 161.222656 1711.21875 163.585938 1711.554688 166.628906 C 1711.894531 170.683594 1711.554688 174.402344 1711.554688 178.457031 C 1708.855469 178.457031 1706.492188 178.117188 1704.128906 177.78125 C 1700.074219 177.441406 1695.6875 176.429688 1691.632812 176.429688 C 1684.542969 176.429688 1677.453125 176.765625 1670.699219 177.105469 C 1663.949219 177.441406 1657.53125 179.46875 1651.457031 182.511719 C 1640.988281 187.917969 1637.273438 197.378906 1635.585938 208.191406 C 1635.25 210.894531 1635.25 213.9375 1635.25 216.640625 C 1635.25 224.414062 1635.585938 231.847656 1638.289062 239.28125 C 1643.015625 252.121094 1653.144531 258.203125 1665.636719 259.894531 C 1675.089844 261.246094 1684.882812 260.230469 1693.996094 256.515625 C 1694.335938 256.175781 1694.335938 256.175781 1694.671875 255.839844 C 1700.074219 254.148438 1704.800781 251.105469 1709.527344 248.066406 C 1710.542969 247.390625 1711.554688 246.714844 1712.90625 246.039062 C 1713.242188 250.09375 1713.917969 253.8125 1714.257812 257.527344 L 1752.746094 257.527344 L 1752.746094 253.8125 C 1752.746094 225.089844 1752.746094 196.367188 1752.746094 167.644531 C 1752.070312 164.601562 1752.070312 160.546875 1751.394531 156.828125 Z M 1711.21875 205.488281 L 1711.21875 221.707031 C 1705.476562 224.414062 1699.398438 226.441406 1692.984375 226.777344 C 1689.945312 226.777344 1686.90625 227.453125 1684.207031 227.453125 C 1675.765625 227.117188 1672.726562 223.738281 1672.726562 215.289062 C 1672.726562 213.9375 1673.0625 212.246094 1673.402344 210.894531 C 1674.078125 207.179688 1676.441406 205.152344 1680.15625 204.476562 C 1683.195312 204.136719 1686.570312 203.460938 1689.609375 203.460938 C 1696.023438 203.460938 1702.777344 204.136719 1709.191406 204.476562 C 1709.867188 205.152344 1710.542969 205.488281 1711.21875 205.488281 Z M 1306.726562 192.988281 C 1304.363281 185.890625 1299.636719 181.496094 1293.222656 178.792969 C 1289.171875 177.441406 1284.445312 176.429688 1280.054688 175.414062 C 1273.976562 174.0625 1267.898438 174.0625 1261.824219 173.050781 C 1257.769531 172.375 1253.71875 171.699219 1249.667969 171.359375 C 1244.601562 170.683594 1243.253906 168.996094 1243.253906 163.925781 C 1243.253906 160.207031 1245.277344 157.84375 1248.65625 156.828125 C 1250.34375 156.492188 1252.03125 156.152344 1253.71875 156.152344 C 1264.523438 156.152344 1274.992188 156.152344 1285.796875 156.492188 C 1288.832031 156.492188 1291.871094 157.167969 1294.910156 157.503906 C 1296.597656 157.503906 1298.625 157.503906 1300.3125 157.503906 L 1300.3125 123.714844 C 1296.597656 123.039062 1293.222656 122.363281 1289.847656 122.363281 C 1276.003906 121.347656 1262.160156 120.671875 1248.316406 121.6875 C 1239.199219 122.363281 1230.085938 124.726562 1221.980469 129.121094 C 1214.554688 133.175781 1209.488281 139.257812 1206.113281 146.691406 C 1204.425781 150.746094 1203.074219 155.140625 1202.734375 159.871094 C 1202.398438 165.617188 1202.0625 171.699219 1203.074219 177.441406 C 1203.75 181.160156 1204.761719 185.214844 1206.449219 188.59375 C 1210.164062 196.367188 1216.578125 201.097656 1225.019531 202.785156 C 1231.097656 204.136719 1237.511719 204.8125 1243.589844 205.828125 C 1247.304688 206.503906 1250.679688 206.503906 1254.394531 207.179688 C 1257.769531 207.515625 1261.148438 208.191406 1264.523438 208.53125 C 1266.886719 208.867188 1268.574219 210.558594 1269.25 212.921875 C 1269.925781 218.328125 1267.5625 222.722656 1262.160156 223.738281 C 1258.445312 224.414062 1254.730469 224.75 1250.679688 224.75 C 1241.566406 224.75 1232.449219 224.074219 1223.332031 223.738281 C 1220.96875 223.738281 1218.605469 223.398438 1216.242188 223.0625 C 1213.203125 222.386719 1210.164062 221.707031 1206.789062 221.03125 L 1206.789062 256.175781 C 1208.136719 256.515625 1209.488281 256.851562 1210.839844 257.191406 C 1219.617188 258.203125 1228.398438 259.554688 1237.175781 260.230469 C 1248.992188 260.90625 1261.148438 261.582031 1272.964844 259.894531 C 1278.03125 259.21875 1283.433594 257.867188 1288.160156 255.839844 C 1288.496094 255.5 1288.496094 255.5 1288.832031 255.164062 C 1290.523438 254.488281 1292.210938 253.472656 1293.5625 252.460938 C 1300.988281 247.390625 1305.039062 239.957031 1307.066406 231.507812 C 1309.09375 223.738281 1309.765625 215.289062 1309.429688 207.179688 C 1309.09375 202.785156 1308.078125 198.054688 1306.726562 192.988281 Z M 1596.082031 222.046875 C 1590.679688 221.03125 1588.316406 218.328125 1587.980469 212.921875 C 1587.980469 211.570312 1587.980469 210.21875 1587.980469 208.867188 C 1587.980469 199.070312 1587.980469 189.605469 1587.980469 179.808594 C 1587.980469 173.050781 1587.980469 165.953125 1587.980469 159.195312 C 1588.316406 158.855469 1588.316406 158.519531 1588.65625 158.519531 C 1589.667969 158.519531 1591.019531 158.179688 1592.03125 158.179688 C 1602.160156 158.179688 1612.289062 158.179688 1622.417969 158.179688 C 1623.433594 158.179688 1624.78125 158.179688 1625.796875 158.179688 L 1625.796875 124.390625 L 1622.082031 124.390625 C 1612.964844 124.390625 1604.1875 124.390625 1595.070312 124.390625 C 1593.042969 124.390625 1590.679688 124.390625 1588.65625 124.050781 C 1588.316406 123.714844 1588.316406 123.714844 1587.980469 123.375 C 1587.980469 113.238281 1587.640625 103.101562 1587.640625 93.300781 L 1553.539062 93.300781 C 1551.851562 103.777344 1550.164062 113.914062 1548.140625 124.390625 L 1531.257812 124.390625 L 1531.257812 158.519531 L 1546.789062 158.519531 C 1546.789062 160.207031 1546.789062 161.222656 1546.789062 162.574219 C 1547.125 183.523438 1545.773438 204.136719 1547.800781 225.089844 C 1548.140625 230.15625 1549.488281 235.226562 1551.515625 239.617188 C 1555.566406 248.402344 1562.320312 254.824219 1572.109375 257.867188 C 1575.488281 258.878906 1578.863281 259.894531 1582.238281 260.90625 C 1582.914062 262.257812 1583.253906 260.90625 1583.589844 260.90625 C 1598.445312 262.933594 1612.964844 261.582031 1627.144531 256.515625 L 1627.144531 221.371094 C 1623.769531 221.707031 1620.394531 222.046875 1617.355469 222.386719 C 1610.265625 223.0625 1603.171875 223.738281 1596.082031 222.046875 Z M 1814.871094 77.421875 C 1801.703125 77.421875 1788.875 77.421875 1776.042969 77.421875 C 1775.707031 77.757812 1775.707031 77.757812 1775.367188 78.097656 C 1775.367188 79.109375 1775.367188 80.460938 1775.367188 81.476562 C 1775.367188 138.921875 1775.367188 196.367188 1775.367188 253.8125 C 1775.367188 254.824219 1775.367188 256.175781 1775.367188 257.191406 C 1775.367188 257.191406 1775.367188 257.191406 1775.367188 257.527344 C 1775.367188 257.527344 1775.367188 257.867188 1775.707031 257.867188 C 1776.382812 257.867188 1776.71875 258.203125 1777.394531 258.203125 C 1789.886719 258.203125 1802.378906 258.203125 1814.535156 258.203125 C 1815.210938 258.203125 1815.546875 257.867188 1816.222656 257.867188 L 1816.222656 77.757812 C 1815.210938 77.757812 1814.871094 77.421875 1814.871094 77.421875 Z M 1474.195312 258.542969 C 1487.703125 258.542969 1501.207031 258.542969 1514.710938 258.542969 L 1514.710938 124.050781 L 1474.195312 124.050781 Z M 1474.195312 258.542969 " fill-opacity="1" fill-rule="nonzero"/></g></svg>